<svg width="14" height="14" viewBox="0 0 14 14" fill="none" xmlns="http://www.w3.org/2000/svg">
<path d="M0.292893 11.9496C-0.0976311 12.3402 -0.0976311 12.9733 0.292893 13.3638C0.683418 13.7544 1.31658 13.7544 1.70711 13.3638L0.292893 11.9496ZM13.3137 1.34303C13.3137 0.790745 12.866 0.34303 12.3137 0.343029L3.31371 0.34303C2.76142 0.34303 2.31371 0.790745 2.31371 1.34303C2.31371 1.89531 2.76142 2.34303 3.31371 2.34303L11.3137 2.34303L11.3137 10.343C11.3137 10.8953 11.7614 11.343 12.3137 11.343C12.866 11.343 13.3137 10.8953 13.3137 10.343L13.3137 1.34303ZM1.70711 13.3638L13.0208 2.05014L11.6066 0.635923L0.292893 11.9496L1.70711 13.3638Z" fill="white"></path>
</svg>